<svg xmlns="http://www.w3.org/2000/svg" xmlns:xlink="http://www.w3.org/1999/xlink" width="120" zoomAndPan="magnify" viewBox="0 0 90 44.999999" height="60" preserveAspectRatio="xMidYMid meet" version="1.0"><defs><clipPath id="aaffc89949"><path d="M 0 1.125 L 90 1.125 L 90 43.875 L 0 43.875 Z M 0 1.125 " clip-rule="nonzero"/></clipPath></defs><g clip-path="url(#aaffc89949)"><path fill="#ffffff" d="M 9.097656 25.609375 C 9.316406 24.894531 9.691406 23.609375 8.660156 23.679688 C 8.171875 23.707031 8.007812 24.777344 7.949219 25.335938 C 8.308594 25.425781 8.691406 25.515625 9.097656 25.609375 Z M 11.710938 19.511719 C 12.484375 18.285156 12.058594 14.757812 9.980469 15.816406 C 8.960938 16.449219 9.023438 17.992188 9.570312 18.941406 C 9.957031 19.605469 11.085938 20.492188 11.710938 19.511719 Z M 12.183594 22.046875 C 12.25 21.777344 12.339844 21.464844 12.429688 21.140625 C 9.925781 22.832031 7.5625 20.066406 7.519531 17.433594 C 7.316406 17.632812 7.074219 17.886719 6.800781 18.242188 C 6.007812 19.25 5.011719 21.117188 4.105469 24.117188 C 4.261719 24.183594 4.492188 24.273438 4.792969 24.398438 C 5.125 24.519531 5.550781 24.636719 6.046875 24.796875 C 6.125 24.820312 6.21875 24.847656 6.300781 24.871094 C 6.546875 23.398438 7.257812 21.757812 9.015625 22 C 9.988281 22.128906 10.828125 22.828125 11.011719 23.804688 C 11.140625 24.527344 10.964844 25.25 10.769531 25.953125 C 11.085938 26.007812 11.40625 26.066406 11.734375 26.121094 C 11.710938 25.980469 11.679688 25.828125 11.667969 25.65625 C 11.640625 25.292969 11.640625 24.867188 11.714844 24.375 C 11.714844 24.375 11.8125 23.574219 12.183594 22.046875 Z M 15.101562 15.097656 C 15.078125 15.097656 15.0625 15.089844 15.039062 15.089844 C 14.6875 15.066406 14.210938 15.03125 13.640625 15.085938 C 13.433594 15.101562 13.214844 15.140625 13.003906 15.199219 C 13.179688 15.445312 13.332031 15.71875 13.457031 16.03125 C 13.617188 16.449219 13.730469 16.941406 13.789062 17.457031 C 14.074219 16.84375 14.40625 16.203125 14.8125 15.539062 C 14.910156 15.390625 15 15.246094 15.101562 15.097656 Z M 14.949219 36.1875 C 15.644531 36.039062 16.414062 35.75 17.195312 35.257812 C 16 35.144531 14.757812 35.125 13.625 34.820312 C 11.53125 34.265625 10.996094 33.203125 10.976562 31.300781 C 10.425781 31.21875 9.898438 31.140625 9.382812 31.054688 C 7.972656 30.816406 6.699219 30.558594 5.550781 30.25 C 5.527344 31.554688 6.089844 32.730469 6.890625 33.601562 C 7.851562 34.675781 9.046875 35.390625 10.167969 35.851562 C 10.605469 36.039062 11.03125 36.175781 11.441406 36.296875 C 11.640625 36.308594 11.859375 36.320312 12.105469 36.34375 C 12.839844 36.378906 13.804688 36.433594 14.949219 36.1875 Z M 22.578125 34.203125 C 22.605469 33.695312 22.609375 33.191406 22.605469 32.683594 C 21.132812 32.5 19.546875 32.3125 17.855469 32.113281 C 17.058594 32.015625 16.285156 31.925781 15.53125 31.835938 C 14.78125 31.757812 14.058594 31.679688 13.359375 31.601562 C 13.144531 31.578125 12.9375 31.554688 12.726562 31.53125 C 13 33.5 15.046875 33.226562 16.882812 33.457031 C 18.792969 33.695312 20.65625 34.117188 22.578125 34.203125 Z M 23.25 19.277344 C 23.703125 17.867188 25.125 15.097656 24.605469 13.613281 C 23.828125 11.398438 19.78125 13.019531 18.515625 14.011719 C 18.035156 14.464844 17.609375 14.96875 17.25 15.480469 C 16.394531 16.699219 15.820312 17.96875 15.394531 19.09375 C 15.167969 19.652344 15.015625 20.203125 14.855469 20.695312 C 14.722656 21.195312 14.589844 21.65625 14.5 22.070312 C 14.3125 22.910156 14.21875 23.570312 14.148438 24.007812 C 14.085938 24.453125 14.066406 24.6875 14.066406 24.6875 C 13.964844 25.46875 13.816406 26.027344 13.625 26.421875 C 14.050781 26.484375 14.492188 26.546875 14.945312 26.601562 C 15.726562 22.769531 16.636719 20.335938 17.269531 18.867188 C 17.96875 17.386719 18.378906 16.894531 18.601562 16.980469 C 18.816406 17.066406 18.808594 17.71875 18.425781 19.261719 C 18.085938 20.773438 17.398438 23.140625 16.648438 26.8125 C 17.0625 26.859375 17.480469 26.90625 17.910156 26.953125 C 18.59375 22.996094 19.355469 20.375 20.070312 18.835938 C 20.261719 18.445312 20.429688 18.109375 20.582031 17.84375 C 20.753906 17.582031 20.898438 17.382812 21.019531 17.226562 C 21.28125 16.921875 21.445312 16.832031 21.546875 16.882812 C 21.65625 16.941406 21.691406 17.136719 21.625 17.511719 C 21.601562 17.699219 21.546875 17.929688 21.46875 18.210938 C 21.402344 18.5 21.324219 18.84375 21.222656 19.242188 C 20.816406 20.785156 20.285156 23.273438 19.621094 27.140625 C 19.8125 27.160156 20 27.179688 20.199219 27.203125 C 20.273438 27.207031 20.339844 27.21875 20.421875 27.226562 C 20.570312 26.621094 20.84375 25.980469 21.257812 25.492188 C 21.257812 25.410156 21.261719 25.324219 21.289062 25.226562 C 21.925781 23.238281 22.609375 21.265625 23.25 19.277344 Z M 28.257812 21.757812 C 31.285156 21.351562 30.46875 15.632812 27.597656 16.03125 C 25.082031 16.753906 25.023438 22.191406 28.257812 21.757812 Z M 29.300781 27.617188 C 29.703125 25.667969 30.199219 23.761719 30.992188 22.003906 C 30.472656 22.6875 29.71875 23.210938 28.695312 23.414062 C 26.507812 23.855469 25.082031 22.6875 24.464844 21.054688 C 24.066406 22.25 23.671875 23.445312 23.285156 24.636719 C 24.707031 24.835938 25.238281 26.308594 25.199219 27.609375 C 25.96875 27.628906 26.71875 27.648438 27.429688 27.636719 C 28.085938 27.628906 28.707031 27.625 29.300781 27.617188 Z M 33.855469 17.882812 C 34.523438 17.277344 35.261719 16.765625 36.035156 16.359375 C 34.992188 16.160156 33.71875 15.867188 32.164062 15.570312 C 31.546875 15.460938 30.886719 15.347656 30.191406 15.269531 C 31.636719 16.546875 32.207031 18.878906 31.636719 20.738281 C 32.234375 19.675781 32.96875 18.695312 33.855469 17.882812 Z M 36.339844 30.152344 C 36.339844 30.117188 36.351562 30.070312 36.351562 30.035156 C 36.160156 30 35.90625 29.957031 35.605469 29.921875 C 35.195312 29.867188 34.683594 29.789062 34.089844 29.722656 C 33.492188 29.683594 32.804688 29.632812 32.050781 29.574219 C 30.523438 29.488281 28.707031 29.460938 26.648438 29.390625 C 26.144531 29.378906 25.617188 29.34375 25.082031 29.316406 C 24.542969 29.285156 23.996094 29.273438 23.433594 29.203125 C 22.875 29.148438 22.300781 29.089844 21.730469 29.03125 C 21.164062 28.96875 20.59375 28.90625 20.015625 28.835938 C 15.394531 28.363281 11.121094 27.980469 8.023438 27.40625 C 6.476562 27.160156 5.226562 26.8125 4.363281 26.625 C 3.5 26.378906 3.023438 26.242188 3.023438 26.242188 C 2.730469 26.140625 2.53125 26.003906 2.382812 25.847656 C 2.359375 25.886719 2.34375 25.929688 2.304688 25.980469 C 2.304688 26.039062 2.25 26.097656 2.261719 26.152344 C 2.246094 26.175781 2.269531 26.214844 2.28125 26.253906 C 2.269531 26.296875 2.320312 26.355469 2.355469 26.421875 C 2.429688 26.554688 2.589844 26.722656 2.800781 26.894531 C 3.234375 27.242188 3.894531 27.59375 4.667969 27.90625 C 6.230469 28.535156 8.257812 29.054688 10.535156 29.464844 C 11.679688 29.671875 12.886719 29.855469 14.140625 30.003906 C 15.410156 30.15625 16.726562 30.316406 18.074219 30.476562 C 20.753906 30.792969 23.3125 31.066406 25.65625 31.300781 C 27.988281 31.53125 30.09375 31.734375 31.863281 31.90625 C 35.417969 32.300781 35.976562 30.421875 36.042969 30.480469 C 36.136719 30.351562 36.238281 30.246094 36.339844 30.152344 Z M 48.242188 30.738281 C 48.328125 29.648438 48.300781 28.625 48.140625 27.730469 C 47.992188 26.832031 47.707031 26.074219 47.332031 25.503906 C 47.074219 25.117188 46.773438 24.824219 46.46875 24.605469 C 46.414062 24.585938 46.371094 24.5625 46.304688 24.558594 C 45.847656 24.4375 45.25 24.4375 44.574219 24.621094 C 43.910156 24.808594 43.160156 25.167969 42.488281 25.726562 C 42.320312 25.851562 42.164062 26.007812 42.015625 26.167969 L 41.828125 26.398438 C 41.753906 26.507812 41.671875 26.609375 41.597656 26.722656 C 41.445312 26.941406 41.273438 27.167969 41.167969 27.375 C 41.058594 27.597656 40.917969 27.785156 40.820312 28.042969 C 40.371094 28.996094 40.050781 30.105469 39.9375 31.289062 C 39.828125 32.460938 39.890625 33.792969 40.207031 34.988281 C 40.53125 36.195312 41.203125 37.160156 42.296875 37.484375 C 43.1875 37.742188 43.617188 37.636719 44.46875 37.5 C 44.59375 37.460938 44.730469 37.394531 44.859375 37.339844 C 45.140625 37.261719 45.371094 37.078125 45.617188 36.933594 C 46.574219 36.277344 47.203125 35.214844 47.59375 34.128906 C 47.953125 33.011719 48.160156 31.820312 48.242188 30.738281 Z M 47.929688 7.65625 C 48.648438 7.632812 49.351562 7.609375 50.042969 7.585938 C 49.015625 5.992188 45.421875 6.238281 45.496094 7.730469 C 46.324219 7.703125 47.132812 7.679688 47.929688 7.65625 Z M 47.296875 39.292969 C 49.0625 37.675781 50.660156 34.6875 50.359375 30.546875 C 50.292969 29.5 50.183594 28.390625 50.066406 27.191406 C 49.949219 25.984375 49.839844 24.8125 49.515625 23.597656 C 49.203125 22.40625 48.722656 21.179688 47.902344 20.269531 C 47.484375 19.828125 46.988281 19.476562 46.414062 19.261719 C 46.117188 19.160156 45.800781 19.101562 45.472656 19.070312 C 45.328125 19.082031 45.191406 19.09375 45.054688 19.125 C 44.34375 19.285156 43.695312 19.746094 43.160156 20.3125 C 42.613281 20.878906 42.171875 21.523438 41.792969 22.160156 C 41.046875 23.4375 40.535156 24.664062 40.148438 25.679688 C 40.003906 26.042969 39.882812 26.378906 39.777344 26.6875 C 39.984375 26.363281 40.207031 26.050781 40.414062 25.820312 C 40.5 25.71875 40.582031 25.613281 40.667969 25.511719 C 40.796875 25.363281 40.890625 25.277344 41 25.164062 C 41.222656 24.964844 41.445312 24.777344 41.671875 24.632812 C 42.578125 24.007812 43.511719 23.691406 44.367188 23.5625 C 44.644531 23.523438 44.914062 23.523438 45.171875 23.527344 C 45.460938 23.503906 45.84375 23.511719 46.304688 23.644531 C 46.898438 23.785156 47.597656 24.175781 48.183594 24.84375 C 48.765625 25.503906 49.210938 26.414062 49.472656 27.4375 C 49.75 28.457031 49.859375 29.597656 49.839844 30.816406 C 49.816406 32.039062 49.667969 33.300781 49.28125 34.675781 C 48.855469 36.03125 48.089844 37.476562 46.71875 38.46875 C 46.363281 38.6875 46.019531 38.949219 45.609375 39.09375 C 45.410156 39.175781 45.214844 39.265625 45.003906 39.328125 C 44.769531 39.386719 44.539062 39.429688 44.308594 39.476562 L 43.953125 39.542969 C 43.851562 39.546875 43.769531 39.546875 43.671875 39.546875 L 43.117188 39.554688 L 43.050781 39.550781 L 42.871094 39.550781 L 42.707031 39.53125 L 42.378906 39.484375 C 42.160156 39.453125 41.9375 39.375 41.71875 39.320312 C 40.828125 39.066406 40.007812 38.472656 39.457031 37.757812 C 38.890625 37.042969 38.582031 36.238281 38.386719 35.472656 C 38.058594 34.128906 38.003906 32.859375 38.113281 31.632812 C 38.058594 31.722656 38.003906 31.820312 37.929688 31.921875 C 37.929688 31.921875 37.84375 32.019531 37.671875 32.214844 C 37.585938 32.316406 37.476562 32.4375 37.324219 32.570312 C 37.171875 32.695312 37.007812 32.863281 36.78125 33.007812 C 36.351562 33.335938 35.722656 33.636719 34.976562 33.828125 C 34.367188 33.972656 33.691406 34.019531 32.988281 33.996094 C 33.382812 36.238281 34.097656 38.234375 35.1875 39.683594 C 36.367188 41.289062 38.035156 42.066406 39.644531 42.078125 C 40.441406 42.128906 41.285156 42.03125 42.019531 41.933594 C 42.757812 41.824219 43.429688 41.660156 44.050781 41.453125 C 44.277344 41.34375 44.523438 41.222656 44.792969 41.097656 C 45.171875 40.886719 45.574219 40.640625 46.011719 40.363281 C 46.410156 40.035156 46.882812 39.742188 47.296875 39.292969 Z M 51.757812 27.761719 C 52.179688 27.832031 52.574219 27.898438 52.941406 27.980469 C 52.320312 26.855469 51.917969 25.71875 51.457031 24.757812 C 51.574219 25.558594 51.640625 26.332031 51.699219 27.046875 C 51.71875 27.289062 51.738281 27.523438 51.757812 27.761719 Z M 64.636719 5.414062 C 65.027344 3.253906 62.984375 2.890625 61.300781 2.972656 C 58.820312 3.085938 56.339844 3.242188 53.863281 3.363281 C 51.105469 3.5 47.902344 3.359375 45.242188 4.148438 C 43.476562 4.667969 43.363281 6.253906 43.027344 7.820312 C 43.28125 7.808594 43.539062 7.796875 43.792969 7.78125 C 43.609375 3.992188 50.769531 3.753906 51.875 7.527344 C 52.960938 7.503906 54.011719 7.46875 55.019531 7.433594 C 56.078125 7.386719 57.121094 7.292969 58.160156 7.238281 C 59.191406 7.191406 60.214844 7.167969 61.207031 7.292969 C 61.707031 7.347656 62.191406 7.449219 62.660156 7.550781 C 63.050781 7.683594 63.449219 7.78125 63.808594 7.929688 C 64.144531 7.113281 64.480469 6.273438 64.636719 5.414062 Z M 68.847656 6.878906 C 69.023438 5.59375 67.726562 4.484375 66.371094 3.84375 C 66.664062 5.433594 65.9375 7.15625 65.320312 8.730469 C 65.667969 8.941406 65.972656 9.183594 66.269531 9.421875 C 66.699219 9.78125 67.089844 10.179688 67.449219 10.609375 C 67.449219 10.5 68.800781 7.226562 68.847656 6.878906 Z M 68.535156 25.613281 C 68.777344 25.609375 69 25.597656 69.226562 25.59375 C 68.398438 25.472656 67.621094 25.300781 66.894531 25.125 C 65.917969 24.878906 65.027344 24.613281 64.199219 24.359375 C 63.636719 24.183594 63.09375 24.015625 62.574219 23.855469 C 62.546875 23.523438 62.550781 23.167969 62.535156 22.839844 C 62.523438 22.660156 62.503906 22.484375 62.492188 22.3125 C 62.316406 20.902344 62.015625 19.644531 61.957031 18.554688 C 61.917969 18.003906 61.933594 17.503906 61.996094 17.046875 C 62.003906 16.679688 62.007812 16.226562 62.175781 15.691406 C 62.234375 15.414062 62.390625 15.132812 62.550781 14.832031 C 62.738281 14.582031 62.945312 14.277344 63.191406 14.0625 C 63.917969 13.332031 64.847656 12.695312 65.972656 12.09375 C 65.460938 11.417969 64.804688 10.761719 63.96875 10.234375 L 63.746094 10.085938 L 63.507812 9.96875 C 63.34375 9.890625 63.1875 9.804688 63.019531 9.722656 C 62.679688 9.59375 62.328125 9.464844 61.953125 9.371094 C 61.179688 9.183594 60.347656 9.078125 59.457031 9.0625 C 58.558594 9.050781 57.621094 9.089844 56.617188 9.148438 C 56.117188 9.171875 55.597656 9.199219 55.070312 9.210938 C 54.550781 9.214844 54.023438 9.226562 53.496094 9.234375 C 52.84375 9.246094 52.1875 9.257812 51.515625 9.273438 C 51.316406 9.347656 51.078125 9.351562 50.871094 9.285156 C 49.585938 9.304688 48.269531 9.335938 46.929688 9.359375 C 45.789062 9.386719 44.636719 9.398438 43.460938 9.449219 C 42.285156 9.511719 41.089844 9.574219 39.882812 9.640625 C 35.0625 9.890625 30.472656 10.1875 26.402344 10.984375 C 25.867188 11.113281 25.339844 11.21875 24.820312 11.339844 C 24.980469 11.433594 25.128906 11.542969 25.28125 11.664062 C 26 12.273438 26.320312 13.097656 26.355469 13.96875 C 26.632812 13.828125 26.90625 13.734375 27.175781 13.667969 C 27.9375 13.476562 28.609375 13.484375 29.242188 13.507812 C 30.484375 13.578125 31.546875 13.804688 32.488281 14.023438 C 34.363281 14.464844 35.765625 14.929688 36.832031 15.265625 C 37.21875 15.398438 37.554688 15.503906 37.847656 15.609375 C 38.730469 15.324219 39.589844 15.132812 40.433594 14.976562 C 40.453125 14.96875 40.476562 14.96875 40.5 14.964844 C 40.5 14.828125 40.5 14.683594 40.5 14.40625 C 40.5 14.324219 40.511719 14.25 40.53125 14.171875 C 40.507812 14.125 40.476562 14.070312 40.460938 14.015625 C 40.394531 13.800781 40.339844 13.558594 40.3125 13.320312 C 39.757812 13.324219 39.234375 13.332031 38.753906 13.332031 C 38.101562 13.363281 37.519531 13.398438 36.992188 13.421875 C 35.925781 13.472656 35.09375 13.523438 34.457031 13.507812 C 33.175781 13.472656 32.699219 13.386719 32.699219 13.265625 C 32.699219 13.144531 33.175781 13.019531 34.425781 12.898438 C 35.050781 12.839844 35.875 12.726562 36.929688 12.632812 C 37.460938 12.59375 38.054688 12.539062 38.710938 12.492188 C 39.203125 12.472656 39.742188 12.46875 40.304688 12.460938 C 40.351562 12.09375 40.453125 11.734375 40.644531 11.429688 C 41.222656 10.484375 42.261719 9.976562 43.359375 10.027344 C 44.203125 10.097656 45.125 10.25 45.769531 10.847656 C 46.328125 11.371094 46.480469 11.96875 46.363281 12.5625 C 49.445312 12.609375 52.03125 12.25 54.179688 11.980469 C 56.488281 11.6875 58.304688 11.453125 59.703125 11.375 C 60.398438 11.335938 60.984375 11.289062 61.476562 11.289062 C 61.96875 11.296875 62.363281 11.300781 62.671875 11.316406 C 63.289062 11.351562 63.550781 11.398438 63.550781 11.453125 C 63.550781 11.519531 63.289062 11.582031 62.683594 11.65625 C 62.378906 11.6875 61.992188 11.730469 61.507812 11.769531 C 61.019531 11.8125 60.441406 11.902344 59.757812 11.976562 C 58.386719 12.140625 56.597656 12.425781 54.289062 12.761719 C 52.074219 13.085938 49.351562 13.496094 46.035156 13.414062 C 45.769531 13.878906 45.382812 14.304688 44.9375 14.664062 C 46.347656 14.746094 47.722656 15.042969 48.953125 15.574219 C 48.984375 15.390625 49.015625 15.246094 49.054688 15.132812 C 49.136719 14.886719 49.246094 14.785156 49.363281 14.785156 C 49.480469 14.785156 49.585938 14.886719 49.660156 15.140625 C 49.695312 15.269531 49.726562 15.433594 49.738281 15.65625 C 49.738281 15.738281 49.734375 15.84375 49.726562 15.949219 C 49.746094 15.953125 49.761719 15.957031 49.773438 15.96875 C 50.238281 16.21875 50.664062 16.5 51.070312 16.789062 C 51.054688 16.289062 51.066406 15.929688 51.101562 15.667969 C 51.148438 15.253906 51.246094 15.089844 51.363281 15.074219 C 51.480469 15.0625 51.597656 15.203125 51.707031 15.613281 C 51.804688 16.003906 51.894531 16.609375 51.957031 17.480469 C 52.199219 17.671875 52.433594 17.871094 52.65625 18.074219 C 52.667969 17.988281 52.671875 17.894531 52.683594 17.816406 C 52.695312 17.4375 52.707031 17.101562 52.71875 16.796875 C 52.738281 16.183594 52.746094 15.695312 52.808594 15.316406 C 52.929688 14.5625 53.054688 14.300781 53.171875 14.3125 C 53.289062 14.328125 53.382812 14.621094 53.417969 15.335938 C 53.429688 15.695312 53.488281 16.175781 53.507812 16.789062 C 53.511719 17.105469 53.519531 17.457031 53.523438 17.84375 C 53.511719 18.132812 53.476562 18.460938 53.4375 18.796875 C 53.644531 18.984375 53.839844 19.175781 54.03125 19.363281 C 55.21875 20.503906 56.316406 21.519531 57.5 22.246094 C 59.898438 23.78125 62.222656 24.6875 64.304688 25.164062 C 64.828125 25.300781 65.328125 25.359375 65.8125 25.457031 C 66.304688 25.503906 66.773438 25.539062 67.226562 25.582031 C 67.683594 25.59375 68.117188 25.601562 68.535156 25.613281 Z M 72.894531 11.644531 C 73.074219 11.441406 73.265625 11.230469 73.476562 11.027344 C 72.066406 10.746094 70.46875 11.101562 68.957031 11.382812 C 68.8125 11.640625 68.671875 11.882812 68.542969 12.117188 C 68.683594 12.359375 68.808594 12.605469 68.929688 12.84375 C 68.992188 12.988281 69.054688 13.121094 69.121094 13.261719 C 69.148438 13.332031 69.183594 13.398438 69.214844 13.464844 L 69.292969 13.71875 C 69.40625 14.046875 69.460938 14.359375 69.5 14.644531 C 69.511719 14.765625 69.523438 14.886719 69.539062 15 C 69.550781 15.054688 69.558594 15.132812 69.5625 15.167969 C 69.570312 15.175781 69.574219 15.179688 69.585938 15.1875 L 69.636719 15.222656 C 69.652344 15.226562 69.664062 15.238281 69.734375 15.265625 C 69.839844 15.3125 69.929688 15.359375 70.015625 15.398438 C 70.164062 15.433594 70.273438 15.503906 70.414062 15.503906 C 70.535156 15.523438 70.644531 15.550781 70.714844 15.550781 C 70.792969 15.550781 70.832031 15.550781 70.832031 15.550781 C 70.914062 15.550781 70.992188 15.550781 71.070312 15.550781 C 71.078125 15.550781 71.078125 15.5 71.082031 15.46875 C 71.148438 15.101562 71.265625 14.550781 71.53125 13.882812 C 71.800781 13.222656 72.21875 12.433594 72.894531 11.644531 Z M 77.703125 25.25 C 77.726562 25.238281 77.746094 25.234375 77.769531 25.222656 C 77 25.210938 76.332031 25.089844 75.78125 24.953125 L 75.546875 25.042969 L 75.140625 25.199219 C 75.082031 25.222656 74.996094 25.261719 74.957031 25.265625 L 74.832031 25.304688 C 74.492188 25.398438 74.160156 25.503906 73.832031 25.550781 C 73.71875 25.574219 73.609375 25.585938 73.5 25.601562 C 71.664062 26.277344 68.53125 27.160156 64.054688 26.351562 C 61.828125 25.921875 59.3125 25.019531 56.75 23.457031 C 55.425781 22.675781 54.199219 21.585938 52.996094 20.460938 C 51.785156 19.339844 50.546875 18.167969 49.027344 17.363281 C 47.523438 16.5625 45.710938 16.214844 43.753906 16.273438 C 42.777344 16.289062 41.761719 16.433594 40.742188 16.609375 C 39.707031 16.800781 38.652344 17.070312 37.6875 17.445312 C 35.722656 18.203125 34.066406 19.734375 32.980469 21.8125 C 32.078125 23.503906 31.511719 25.484375 31.066406 27.59375 C 31.667969 27.585938 32.242188 27.582031 32.765625 27.582031 C 34.949219 27.585938 36.359375 27.707031 36.929688 27.769531 C 36.960938 27.675781 36.996094 27.582031 37.039062 27.460938 C 37.199219 27.007812 37.449219 26.332031 37.804688 25.445312 C 38.167969 24.558594 38.632812 23.445312 39.332031 22.152344 C 39.683594 21.511719 40.089844 20.820312 40.617188 20.113281 C 41.140625 19.40625 41.78125 18.660156 42.691406 18.027344 C 43.128906 17.707031 43.675781 17.445312 44.265625 17.261719 C 44.871094 17.082031 45.535156 17.042969 46.1875 17.117188 C 47.484375 17.300781 48.640625 17.953125 49.605469 18.8125 C 50.574219 19.683594 51.339844 20.761719 52 21.902344 C 52.324219 22.472656 52.625 23.0625 52.925781 23.648438 C 53.25 24.300781 53.488281 24.941406 53.753906 25.558594 C 54.003906 26.179688 54.265625 26.789062 54.585938 27.335938 C 54.894531 27.882812 55.273438 28.367188 55.699219 28.65625 C 55.804688 28.738281 55.917969 28.773438 56.027344 28.84375 L 56.488281 29.015625 C 56.640625 29.078125 56.804688 29.113281 56.964844 29.160156 C 57.121094 29.203125 57.285156 29.25 57.453125 29.273438 C 58.125 29.410156 58.835938 29.4375 59.570312 29.414062 C 61.042969 29.367188 62.59375 29.039062 64.199219 28.625 C 65.015625 28.410156 65.835938 28.1875 66.675781 27.957031 C 67.09375 27.839844 67.546875 27.742188 67.992188 27.636719 C 68.4375 27.527344 68.882812 27.441406 69.335938 27.363281 C 71.128906 27.03125 72.835938 26.789062 74.425781 26.414062 C 74.816406 26.308594 75.203125 26.203125 75.585938 26.097656 C 75.960938 25.984375 76.316406 25.839844 76.683594 25.71875 C 77.054688 25.601562 77.359375 25.398438 77.703125 25.25 Z M 80.363281 11.644531 C 80.398438 11.628906 80.4375 11.621094 80.46875 11.609375 C 80.15625 11.308594 79.570312 11.03125 78.84375 10.90625 C 78.082031 10.78125 77.175781 10.78125 76.394531 11.066406 C 75.597656 11.382812 74.921875 11.929688 74.441406 12.527344 C 73.96875 13.132812 73.675781 13.777344 73.519531 14.316406 C 73.34375 14.863281 73.351562 15.3125 73.339844 15.609375 C 73.363281 15.902344 73.378906 16.066406 73.378906 16.066406 C 73.378906 16.101562 73.375 16.136719 73.355469 16.171875 C 73.421875 16.277344 73.453125 16.386719 73.453125 16.507812 C 73.449219 16.835938 73.285156 17.128906 72.910156 17.375 C 72.527344 17.605469 71.941406 17.867188 70.796875 17.871094 C 70.796875 17.871094 70.722656 17.867188 70.574219 17.863281 C 70.429688 17.863281 70.191406 17.820312 69.882812 17.769531 C 69.574219 17.707031 69.113281 17.558594 68.746094 17.339844 C 68.40625 17.191406 67.636719 16.671875 67.414062 15.820312 C 67.304688 15.414062 67.3125 15.121094 67.292969 14.917969 C 67.269531 14.710938 67.253906 14.542969 67.199219 14.363281 L 67.164062 14.21875 L 67.089844 14.058594 C 67.042969 13.941406 66.992188 13.824219 66.941406 13.699219 C 66.921875 13.648438 66.894531 13.601562 66.871094 13.554688 C 65.78125 14.113281 64.894531 14.671875 64.28125 15.203125 C 64.066406 15.371094 63.957031 15.535156 63.796875 15.683594 C 62.515625 17.855469 63.273438 19.792969 63.695312 22.140625 C 63.722656 22.335938 63.746094 22.535156 63.773438 22.742188 C 63.785156 22.792969 63.785156 22.84375 63.796875 22.886719 C 63.878906 22.90625 63.953125 22.921875 64.03125 22.941406 C 64.210938 22.984375 64.386719 23.039062 64.570312 23.085938 C 65.390625 23.300781 66.269531 23.527344 67.214844 23.734375 C 69.082031 24.125 71.253906 24.476562 73.507812 24.003906 C 73.789062 23.957031 74.058594 23.859375 74.339844 23.78125 L 74.449219 23.75 C 74.484375 23.738281 74.472656 23.738281 74.488281 23.734375 L 74.535156 23.714844 C 74.5625 23.703125 74.609375 23.691406 74.617188 23.679688 L 74.613281 23.644531 C 74.605469 23.492188 74.597656 23.34375 74.585938 23.191406 C 74.585938 22.839844 74.585938 22.484375 74.582031 22.125 C 74.609375 20.691406 74.753906 19.171875 75.179688 17.59375 C 75.613281 16.039062 76.339844 14.371094 77.757812 13.039062 C 77.933594 12.871094 78.140625 12.742188 78.332031 12.585938 C 78.535156 12.4375 78.734375 12.292969 78.960938 12.191406 C 79.183594 12.082031 79.414062 11.976562 79.640625 11.859375 C 79.875 11.777344 80.121094 11.710938 80.363281 11.644531 Z M 82.882812 23.75 C 82.925781 23.488281 82.933594 23.273438 82.945312 23.039062 C 82.945312 22.570312 82.898438 22.125 82.820312 21.707031 C 82.660156 20.890625 82.355469 20.179688 82.03125 19.804688 C 81.894531 19.660156 81.835938 19.617188 81.757812 19.605469 C 81.699219 20.082031 81.675781 20.59375 81.648438 21.128906 C 81.613281 21.800781 81.597656 22.515625 81.425781 23.285156 C 81.085938 24.84375 79.191406 25.757812 80.691406 27.40625 C 80.859375 27.609375 81.019531 27.695312 81.144531 27.710938 C 81.207031 27.722656 81.277344 27.71875 81.378906 27.695312 C 81.460938 27.671875 81.507812 27.652344 81.578125 27.605469 C 81.878906 27.394531 82.171875 26.8125 82.355469 26.265625 C 82.546875 25.707031 82.675781 25.128906 82.769531 24.582031 C 82.820312 24.3125 82.847656 24.03125 82.882812 23.75 Z M 84.777344 24.289062 C 85.128906 22.214844 84.859375 19.25 83.757812 17.433594 C 83.6875 17.316406 83.609375 17.222656 83.535156 17.117188 C 83.386719 16.929688 83.203125 16.753906 83.140625 16.710938 C 83.066406 16.65625 82.972656 16.636719 82.882812 16.660156 C 82.835938 16.671875 82.804688 16.695312 82.761719 16.730469 C 82.734375 16.757812 82.6875 16.789062 82.617188 16.890625 C 82.488281 17.066406 82.359375 17.300781 82.257812 17.550781 C 82.132812 17.84375 82.035156 18.15625 81.957031 18.484375 C 82.042969 18.496094 82.125 18.511719 82.214844 18.542969 C 82.488281 18.621094 82.695312 18.78125 82.875 18.929688 C 83.542969 19.5625 83.925781 20.390625 84.203125 21.378906 C 84.335938 21.878906 84.429688 22.417969 84.453125 23.007812 C 84.460938 23.300781 84.460938 23.632812 84.425781 23.925781 C 84.402344 24.195312 84.378906 24.496094 84.335938 24.808594 C 84.253906 25.433594 84.128906 26.082031 83.914062 26.777344 C 83.800781 27.125 83.667969 27.484375 83.476562 27.851562 C 83.277344 28.214844 83.03125 28.609375 82.582031 28.953125 C 82.359375 29.128906 82.078125 29.261719 81.796875 29.332031 C 81.539062 29.402344 81.226562 29.441406 80.910156 29.398438 C 80.277344 29.308594 79.742188 28.933594 79.394531 28.535156 C 79.042969 28.121094 78.808594 27.664062 78.636719 27.183594 C 78.589844 27.03125 78.542969 26.878906 78.511719 26.71875 C 78.453125 26.746094 78.398438 26.777344 78.339844 26.804688 C 77.820312 27.082031 77.277344 27.277344 76.722656 27.472656 C 76.882812 28.914062 78.03125 30.105469 79.230469 30.558594 C 79.882812 30.816406 80.550781 30.871094 81.132812 30.746094 C 81.71875 30.625 82.214844 30.3125 82.605469 29.941406 C 83.355469 29.09375 83.800781 27.945312 84.125 26.972656 C 84.441406 25.980469 84.636719 25.078125 84.777344 24.289062 Z M 87.835938 22.089844 C 87.886719 21.910156 87.886719 21.574219 87.824219 21.238281 C 87.761719 20.894531 87.664062 20.539062 87.539062 20.199219 C 87.300781 19.5 86.996094 18.855469 86.695312 18.253906 C 86.0625 16.976562 85.570312 15.984375 85.105469 15.265625 C 84.648438 14.546875 84.242188 14.125 83.96875 13.871094 C 83.691406 13.625 83.550781 13.554688 83.550781 13.554688 C 83.378906 13.414062 83.210938 13.351562 83.066406 13.253906 C 83.019531 13.230469 82.972656 13.210938 82.925781 13.191406 C 82.699219 13.308594 82.378906 13.324219 82.023438 13.265625 C 81.847656 13.238281 81.683594 13.203125 81.527344 13.164062 C 80.515625 13.296875 79.605469 13.679688 78.898438 14.304688 C 77.839844 15.292969 77.191406 16.667969 76.800781 18.042969 C 76.414062 19.425781 76.261719 20.832031 76.21875 22.164062 C 76.21875 22.496094 76.21875 22.828125 76.214844 23.152344 C 76.230469 23.503906 76.25 23.847656 76.261719 24.191406 C 76.800781 24.230469 77.402344 24.277344 78.015625 24.265625 C 78.515625 24.253906 78.949219 24.164062 79.3125 24.015625 C 79.453125 23.808594 79.570312 23.589844 79.652344 23.347656 C 79.835938 22.78125 79.882812 22.09375 79.910156 21.375 C 79.945312 20.648438 79.941406 19.933594 80.042969 19.125 C 80.144531 18.34375 80.324219 17.609375 80.621094 16.871094 C 80.769531 16.507812 80.949219 16.136719 81.226562 15.769531 C 81.367188 15.582031 81.574219 15.347656 81.824219 15.175781 C 82.066406 15.003906 82.332031 14.878906 82.625 14.832031 C 83.195312 14.722656 83.800781 14.921875 84.25 15.265625 C 84.664062 15.585938 84.882812 15.867188 85.117188 16.171875 C 85.230469 16.320312 85.320312 16.464844 85.421875 16.613281 C 85.523438 16.789062 85.640625 17.015625 85.710938 17.199219 C 85.851562 17.574219 85.9375 17.917969 86.003906 18.242188 C 86.128906 18.902344 86.191406 19.488281 86.269531 20.042969 C 86.34375 20.597656 86.429688 21.109375 86.550781 21.546875 C 86.671875 21.976562 86.871094 22.269531 86.960938 22.316406 C 86.984375 22.335938 87.011719 22.324219 87.03125 22.347656 C 87.066406 22.351562 87.109375 22.347656 87.148438 22.359375 C 87.28125 22.371094 87.480469 22.351562 87.578125 22.316406 C 87.691406 22.28125 87.746094 22.25 87.769531 22.226562 C 87.792969 22.203125 87.816406 22.175781 87.835938 22.089844 Z M 89.898438 21.191406 C 89.945312 21.730469 89.972656 22.375 89.601562 23.113281 C 89.414062 23.46875 89.085938 23.808594 88.722656 24.003906 C 88.355469 24.207031 87.984375 24.300781 87.652344 24.328125 C 87.476562 24.351562 87.324219 24.347656 87.15625 24.351562 C 86.960938 24.335938 86.75 24.304688 86.550781 24.265625 C 86.367188 24.214844 86.183594 24.125 86.007812 24.039062 C 86.003906 24.171875 85.996094 24.300781 85.984375 24.441406 C 85.910156 25.289062 85.78125 26.265625 85.492188 27.375 C 85.179688 28.46875 84.824219 29.730469 83.765625 31.015625 C 83.191406 31.621094 82.417969 32.136719 81.496094 32.347656 C 80.574219 32.570312 79.5625 32.484375 78.632812 32.128906 C 77.695312 31.78125 76.8125 31.175781 76.128906 30.3125 C 75.609375 29.671875 75.203125 28.859375 75.046875 27.957031 C 74.710938 28.042969 74.382812 28.121094 74.046875 28.1875 C 72.574219 28.5 71.09375 28.699219 69.636719 28.980469 C 68.902344 29.105469 68.203125 29.277344 67.492188 29.441406 C 66.773438 29.644531 66.066406 29.835938 65.355469 30.03125 C 63.933594 30.421875 62.492188 30.78125 61.019531 30.976562 C 59.550781 31.15625 58.03125 31.199219 56.570312 30.820312 C 56.203125 30.734375 55.847656 30.605469 55.496094 30.476562 C 55.332031 30.425781 55.117188 30.304688 54.9375 30.214844 C 54.851562 30.164062 54.769531 30.105469 54.683594 30.046875 C 54.398438 29.980469 54.046875 29.898438 53.628906 29.808594 C 53.164062 29.71875 52.585938 29.632812 51.882812 29.523438 C 51.90625 29.84375 51.929688 30.167969 51.941406 30.480469 C 52.03125 32.695312 51.671875 34.785156 50.914062 36.425781 C 50.375 37.695312 49.625 38.710938 48.851562 39.507812 C 48.585938 39.886719 48.277344 40.269531 47.894531 40.660156 C 47.09375 41.464844 45.980469 42.253906 44.570312 42.785156 C 43.152344 43.3125 41.523438 43.671875 39.59375 43.660156 C 38.609375 43.652344 37.53125 43.457031 36.515625 42.945312 C 35.5 42.449219 34.582031 41.660156 33.851562 40.699219 C 32.421875 38.832031 31.628906 36.433594 31.214844 33.828125 C 30.699219 33.75 30.175781 33.667969 29.636719 33.585938 C 28.621094 33.449219 27.507812 33.304688 26.296875 33.144531 C 25.664062 33.066406 25.003906 32.980469 24.320312 32.894531 C 24.324219 33.621094 24.308594 34.339844 24.21875 35.070312 C 24.152344 35.539062 23.867188 35.929688 23.359375 35.929688 C 22.0625 35.941406 20.808594 35.796875 19.546875 35.605469 C 19.019531 36.09375 18.457031 36.492188 17.898438 36.8125 C 17.445312 37.140625 16.878906 37.460938 16.148438 37.695312 C 14.535156 38.214844 12.214844 38.316406 9.582031 37.328125 C 8.273438 36.832031 6.863281 36.050781 5.640625 34.734375 C 5.035156 34.074219 4.488281 33.257812 4.152344 32.28125 C 3.878906 31.507812 3.777344 30.617188 3.859375 29.734375 C 3.636719 29.65625 3.410156 29.566406 3.195312 29.484375 C 2.363281 29.136719 1.625 28.746094 1 28.175781 C 0.691406 27.886719 0.414062 27.546875 0.238281 27.140625 C 0.046875 26.746094 -0.00390625 26.300781 0 25.933594 C 0.0234375 25.757812 0.046875 25.585938 0.0742188 25.433594 C 0.0976562 25.269531 0.160156 25.164062 0.203125 25.042969 C 0.292969 24.8125 0.371094 24.625 0.457031 24.519531 C 0.613281 24.273438 0.691406 24.148438 0.691406 24.148438 C 0.90625 23.867188 1.125 23.707031 1.324219 23.574219 C 1.523438 23.46875 1.722656 23.425781 1.886719 23.421875 C 2.117188 23.414062 2.304688 23.488281 2.464844 23.613281 C 3.46875 20.457031 4.734375 18.433594 5.925781 17.402344 C 6.253906 17.101562 6.589844 16.902344 6.863281 16.742188 C 7.160156 16.609375 7.398438 16.519531 7.597656 16.484375 C 7.785156 15.703125 8.199219 14.988281 8.925781 14.472656 C 8.984375 14.417969 9.046875 14.375 9.117188 14.335938 C 9.1875 14.296875 9.257812 14.265625 9.320312 14.242188 C 10.039062 13.925781 10.75 13.859375 11.382812 14.027344 C 11.6875 13.835938 11.996094 13.722656 12.269531 13.648438 C 12.28125 13.644531 12.292969 13.644531 12.308594 13.636719 C 11.976562 13.242188 11.753906 12.75 11.699219 12.191406 C 11.546875 10.804688 12.679688 9.796875 14.027344 9.933594 C 14.085938 9.941406 14.140625 9.945312 14.199219 9.964844 C 14.21875 9.964844 14.234375 9.964844 14.257812 9.964844 C 15.460938 10.15625 16.402344 11.261719 16.367188 12.496094 C 16.347656 13.089844 16.109375 13.691406 15.703125 14.105469 C 15.726562 14.125 15.75 14.140625 15.769531 14.160156 C 15.9375 13.933594 16.113281 13.71875 16.308594 13.496094 C 16.59375 13.152344 16.949219 12.839844 17.285156 12.496094 C 17.664062 12.191406 18.039062 11.859375 18.472656 11.585938 C 18.925781 11.324219 19.371094 11.03125 19.898438 10.847656 C 20.421875 10.613281 20.902344 10.5 21.390625 10.367188 C 22.394531 10.089844 23.425781 9.78125 24.523438 9.585938 C 25.074219 9.472656 25.632812 9.359375 26.199219 9.246094 C 26.769531 9.160156 27.355469 9.066406 27.945312 8.980469 C 29.136719 8.78125 30.371094 8.679688 31.644531 8.535156 C 34.199219 8.300781 36.925781 8.140625 39.792969 7.996094 C 40.296875 7.972656 40.78125 7.949219 41.269531 7.917969 C 41.269531 7.851562 41.28125 7.78125 41.292969 7.707031 C 41.785156 5.707031 41.949219 3.625 44.050781 2.738281 C 47.519531 1.273438 52.308594 1.71875 55.992188 1.554688 C 58.289062 1.449219 60.496094 1.351562 62.808594 1.5 C 65.328125 1.667969 69.292969 2.996094 70.386719 5.5 C 70.902344 6.675781 70.511719 8.164062 69.894531 9.558594 C 71.699219 9.261719 73.519531 9.027344 75.203125 9.808594 C 75.398438 9.707031 75.601562 9.617188 75.820312 9.53125 C 76.484375 9.285156 77.175781 9.175781 77.75 9.148438 C 78.339844 9.117188 78.890625 9.136719 79.414062 9.214844 C 80.449219 9.371094 81.375 9.710938 82.035156 10.300781 C 82.257812 10.496094 82.441406 10.707031 82.59375 10.917969 C 82.726562 10.914062 82.871094 10.914062 83.027344 10.914062 C 83.304688 10.917969 83.609375 11.003906 83.933594 11.09375 C 84.242188 11.21875 84.589844 11.363281 84.886719 11.59375 C 84.886719 11.59375 84.96875 11.652344 85.128906 11.765625 C 85.269531 11.878906 85.480469 12.066406 85.734375 12.316406 C 86.230469 12.820312 86.824219 13.625 87.378906 14.675781 C 87.664062 15.203125 87.941406 15.785156 88.222656 16.410156 C 88.367188 16.71875 88.515625 17.035156 88.667969 17.371094 C 88.832031 17.71875 88.992188 18.085938 89.148438 18.472656 C 89.460938 19.253906 89.777344 20.105469 89.898438 21.191406 Z M 23.039062 26.324219 C 22.964844 26.324219 22.898438 26.328125 22.789062 26.390625 C 22.675781 26.460938 22.570312 26.554688 22.472656 26.679688 C 22.308594 26.890625 22.207031 27.148438 22.128906 27.40625 C 22.160156 27.414062 22.1875 27.414062 22.210938 27.417969 C 22.65625 27.453125 23.078125 27.496094 23.503906 27.527344 C 23.527344 27.226562 23.515625 26.910156 23.382812 26.667969 C 23.320312 26.546875 23.203125 26.398438 23.191406 26.386719 C 23.160156 26.367188 23.039062 26.332031 23.039062 26.324219 Z M 14.582031 12.828125 C 14.640625 12.636719 14.667969 12.460938 14.644531 12.371094 C 14.554688 11.941406 14.386719 11.734375 13.902344 11.640625 C 13.777344 11.628906 13.652344 11.621094 13.535156 11.664062 C 13.53125 11.667969 13.46875 11.730469 13.457031 11.730469 C 13.390625 11.847656 13.367188 11.992188 13.414062 12.15625 C 13.535156 12.585938 14.085938 13.019531 14.375 12.953125 C 14.398438 12.945312 14.492188 12.898438 14.511719 12.894531 C 14.535156 12.867188 14.582031 12.808594 14.582031 12.828125 Z M 44.671875 12.210938 C 44.679688 12.222656 44.679688 12.226562 44.691406 12.246094 C 44.683594 12.226562 44.679688 12.222656 44.671875 12.210938 Z M 44.65625 12.175781 C 44.648438 12.164062 44.644531 12.152344 44.632812 12.136719 C 44.605469 12.113281 44.5625 12.078125 44.539062 12.058594 C 44.484375 12.023438 44.425781 11.988281 44.367188 11.957031 C 44.3125 11.941406 44.179688 11.890625 44.144531 11.878906 C 43.992188 11.835938 43.839844 11.796875 43.683594 11.777344 C 43.609375 11.765625 43.539062 11.757812 43.359375 11.742188 C 42.734375 11.710938 42.003906 12.011719 41.996094 12.726562 C 41.996094 12.882812 42.007812 13.042969 42.027344 13.203125 C 42.039062 13.238281 42.082031 13.457031 42.09375 13.5 C 42.109375 13.535156 42.121094 13.570312 42.128906 13.601562 C 42.148438 13.625 42.160156 13.660156 42.171875 13.671875 C 42.1875 13.707031 42.203125 13.734375 42.226562 13.765625 C 42.25 13.789062 42.273438 13.8125 42.296875 13.835938 C 42.320312 13.847656 42.332031 13.859375 42.355469 13.867188 C 42.355469 13.871094 42.355469 13.871094 42.367188 13.871094 C 42.402344 13.882812 42.4375 13.894531 42.472656 13.902344 C 42.546875 13.90625 42.621094 13.90625 42.695312 13.902344 C 42.695312 13.902344 42.699219 13.902344 42.707031 13.902344 C 42.710938 13.902344 42.71875 13.894531 42.722656 13.894531 C 42.746094 13.890625 42.765625 13.890625 42.777344 13.890625 C 42.792969 13.882812 42.804688 13.882812 42.804688 13.882812 C 42.8125 13.878906 42.8125 13.878906 42.816406 13.878906 C 42.894531 13.855469 42.980469 13.835938 43.066406 13.804688 C 43.101562 13.792969 43.140625 13.78125 43.175781 13.765625 C 43.191406 13.757812 43.203125 13.753906 43.210938 13.746094 C 43.296875 13.707031 43.382812 13.667969 43.460938 13.621094 C 43.558594 13.566406 43.652344 13.5 43.746094 13.4375 C 43.773438 13.414062 43.808594 13.390625 43.839844 13.367188 C 43.863281 13.351562 43.875 13.335938 43.890625 13.332031 C 44.042969 13.199219 44.191406 13.054688 44.332031 12.894531 C 44.34375 12.882812 44.367188 12.851562 44.378906 12.832031 C 44.390625 12.808594 44.410156 12.792969 44.421875 12.773438 C 44.476562 12.691406 44.53125 12.605469 44.574219 12.515625 C 44.585938 12.492188 44.597656 12.472656 44.605469 12.46875 C 44.609375 12.449219 44.609375 12.4375 44.621094 12.414062 C 44.632812 12.371094 44.636719 12.324219 44.648438 12.28125 C 44.648438 12.273438 44.648438 12.265625 44.648438 12.257812 C 44.632812 12.25 44.59375 12.082031 44.65625 12.175781 " fill-opacity="1" fill-rule="nonzero"/></g><path fill="#ffffff" d="M 57.363281 14.980469 C 57.625 14.980469 57.84375 15.792969 57.84375 16.789062 C 57.84375 17.785156 57.625 18.597656 57.363281 18.597656 C 57.097656 18.597656 56.878906 17.785156 56.878906 16.789062 C 56.878906 15.792969 57.097656 14.980469 57.363281 14.980469 " fill-opacity="1" fill-rule="nonzero"/><path fill="#ffffff" d="M 55.363281 14.886719 C 55.625 14.886719 55.859375 15.917969 55.855469 17.234375 C 55.832031 18.609375 55.421875 19.574219 55.167969 19.550781 C 54.894531 19.523438 54.878906 18.421875 54.890625 17.214844 C 54.894531 15.953125 55.097656 14.886719 55.363281 14.886719 " fill-opacity="1" fill-rule="nonzero"/><path fill="#ffffff" d="M 44.820312 31.363281 C 45.082031 30.238281 45.015625 29.070312 44.695312 28.503906 C 44.539062 28.234375 44.390625 28.144531 44.117188 28.121094 C 43.988281 28.109375 43.851562 28.128906 43.710938 28.164062 C 43.628906 28.21875 43.539062 28.277344 43.453125 28.359375 C 43.214844 28.582031 42.988281 28.882812 42.792969 29.265625 C 42.398438 30.023438 42.121094 31.109375 42.125 32.289062 C 42.128906 32.859375 42.214844 33.488281 42.421875 33.914062 C 42.523438 34.121094 42.644531 34.214844 42.667969 34.21875 C 42.683594 34.230469 42.789062 34.25 43.015625 34.140625 C 43.964844 33.726562 44.570312 32.488281 44.820312 31.363281 Z M 46.570312 29.539062 C 46.679688 30.222656 46.683594 30.941406 46.570312 31.683594 C 46.460938 32.425781 46.234375 33.199219 45.820312 33.957031 C 45.609375 34.339844 45.351562 34.707031 45.007812 35.054688 L 44.710938 35.328125 C 44.621094 35.40625 44.558594 35.449219 44.476562 35.511719 C 44.226562 35.683594 44.054688 35.785156 43.796875 35.90625 C 43.664062 35.957031 43.539062 36.007812 43.402344 36.050781 C 43.257812 36.085938 43.105469 36.117188 42.953125 36.140625 C 42.789062 36.144531 42.613281 36.144531 42.445312 36.132812 C 42.273438 36.09375 42.09375 36.0625 41.929688 35.984375 C 41.257812 35.695312 40.910156 35.144531 40.707031 34.707031 C 40.324219 33.792969 40.316406 32.980469 40.347656 32.226562 C 40.460938 30.730469 40.945312 29.449219 41.648438 28.515625 C 42.003906 28.054688 42.421875 27.6875 42.855469 27.460938 C 43.082031 27.347656 43.304688 27.265625 43.519531 27.21875 C 43.648438 27.148438 43.796875 27.09375 43.976562 27.046875 C 44.238281 26.996094 44.5625 26.960938 44.902344 27.082031 C 45.230469 27.183594 45.558594 27.40625 45.777344 27.675781 C 46.234375 28.214844 46.457031 28.871094 46.570312 29.539062 " fill-opacity="1" fill-rule="nonzero"/><path fill="#ffffff" d="M 42.804688 13.882812 C 42.804688 13.882812 42.792969 13.882812 42.777344 13.890625 C 42.78125 13.882812 42.792969 13.882812 42.804688 13.882812 " fill-opacity="1" fill-rule="nonzero"/></svg>