<svg xmlns="http://www.w3.org/2000/svg" xmlns:xlink="http://www.w3.org/1999/xlink" width="140" zoomAndPan="magnify" viewBox="0 0 104.88 44.999999" height="60" preserveAspectRatio="xMidYMid meet" version="1.0"><defs><clipPath id="0b53134f15"><path d="M 17 29 L 31 29 L 31 42.539062 L 17 42.539062 Z M 17 29 " clip-rule="nonzero"/></clipPath><clipPath id="eb503d1ae2"><path d="M 0 3 L 104.761719 3 L 104.761719 38 L 0 38 Z M 0 3 " clip-rule="nonzero"/></clipPath><clipPath id="2f3a095455"><path d="M 72 29 L 86 29 L 86 42.539062 L 72 42.539062 Z M 72 29 " clip-rule="nonzero"/></clipPath></defs><g clip-path="url(#0b53134f15)"><path fill="#ffffff" d="M 17.425781 35.882812 C 17.425781 39.582031 20.355469 42.539062 23.941406 42.539062 C 27.523438 42.539062 30.453125 39.582031 30.453125 35.882812 C 30.453125 32.183594 27.523438 29.222656 23.941406 29.222656 C 20.355469 29.222656 17.425781 32.265625 17.425781 35.882812 Z M 27.195312 35.882812 C 27.195312 37.691406 25.730469 39.167969 23.941406 39.167969 C 22.148438 39.167969 20.683594 37.691406 20.683594 35.882812 C 20.683594 34.074219 22.148438 32.59375 23.941406 32.59375 C 25.730469 32.59375 27.195312 34.074219 27.195312 35.882812 Z M 27.195312 35.882812 " fill-opacity="1" fill-rule="nonzero"/></g><g clip-path="url(#eb503d1ae2)"><path fill="#ffffff" d="M 2.769531 35.140625 C 3.664062 36.621094 5.292969 37.605469 7.003906 37.605469 L 12.539062 37.605469 C 13.4375 37.605469 14.167969 36.867188 14.167969 35.964844 C 14.332031 30.539062 18.648438 26.179688 23.941406 26.179688 C 29.234375 26.179688 33.546875 30.457031 33.710938 35.964844 C 33.710938 36.867188 34.445312 37.605469 35.339844 37.605469 L 67.910156 37.605469 C 68.808594 37.605469 69.539062 36.867188 69.539062 35.964844 C 69.703125 30.539062 74.019531 26.179688 79.3125 26.179688 C 84.605469 26.179688 88.921875 30.457031 89.082031 35.964844 C 89.082031 36.867188 89.816406 37.605469 90.710938 37.605469 L 100.320312 37.605469 C 101.214844 37.605469 101.949219 36.867188 101.949219 35.964844 L 101.949219 34.730469 C 101.949219 34.484375 102.03125 34.238281 102.273438 33.992188 C 102.355469 33.824219 102.601562 33.742188 102.925781 33.742188 C 103.820312 33.742188 104.554688 33.003906 104.554688 32.101562 L 104.554688 26.425781 C 104.554688 25.851562 104.230469 25.277344 103.738281 25.03125 L 102.761719 24.453125 C 100.074219 19.769531 95.351562 17.960938 91.933594 17.054688 L 91.851562 17.054688 C 86.070312 15.496094 77.4375 13.109375 65.386719 13.6875 C 65.386719 13.6875 65.304688 13.605469 65.304688 13.605469 L 51.789062 3.410156 C 51.054688 2.835938 50.078125 3.082031 49.507812 3.820312 C 49.019531 4.5625 49.183594 5.628906 49.914062 6.125 L 60.910156 14.179688 C 46.984375 16.398438 32.328125 15.082031 27.523438 14.589844 C 27.523438 14.589844 27.523438 14.507812 27.523438 14.507812 L 27.523438 4.808594 C 27.523438 4.234375 27.195312 3.65625 26.707031 3.328125 C 26.21875 3 25.570312 3 25.078125 3.328125 L 11.726562 11.136719 L 6.921875 13.605469 C 6.921875 13.605469 6.839844 13.605469 6.839844 13.6875 L 1.140625 16.972656 C 0.652344 17.304688 0.324219 17.796875 0.324219 18.453125 L 0.324219 30.457031 C 0.324219 30.785156 0.40625 31.03125 0.570312 31.277344 Z M 24.183594 7.601562 L 24.183594 13.851562 L 16.855469 11.960938 Z M 9.28125 26.757812 L 9.28125 16.152344 L 12.703125 14.425781 L 25.160156 17.632812 C 25.242188 17.632812 25.242188 17.632812 25.324219 17.632812 C 26.21875 17.714844 46.496094 20.589844 64.816406 16.808594 C 76.707031 16.152344 85.253906 18.535156 90.957031 20.015625 L 91.039062 20.015625 C 95.761719 21.332031 98.527344 23.222656 100.074219 26.179688 C 100.238281 26.425781 100.402344 26.675781 100.644531 26.839844 L 101.214844 27.167969 L 101.214844 30.539062 C 100.726562 30.785156 100.238281 31.03125 99.832031 31.441406 C 99.097656 32.183594 98.691406 33.085938 98.609375 34.074219 L 92.09375 34.074219 C 91.199219 27.742188 85.824219 22.894531 79.3125 22.894531 C 72.796875 22.894531 67.421875 27.742188 66.445312 34.238281 L 36.804688 34.238281 C 35.828125 27.742188 30.453125 22.894531 23.941406 22.894531 C 17.425781 22.894531 12.050781 27.742188 11.074219 34.238281 L 7.003906 34.238281 C 6.433594 34.238281 5.863281 33.90625 5.617188 33.414062 L 4.640625 31.769531 C 7.164062 31.605469 9.28125 29.46875 9.28125 26.757812 Z M 3.582031 19.441406 L 6.027344 18.042969 L 6.027344 26.839844 C 6.027344 27.742188 5.292969 28.484375 4.398438 28.484375 L 3.582031 28.484375 Z M 3.582031 19.441406 " fill-opacity="1" fill-rule="nonzero"/></g><g clip-path="url(#2f3a095455)"><path fill="#ffffff" d="M 72.796875 35.882812 C 72.796875 39.582031 75.730469 42.539062 79.3125 42.539062 C 82.894531 42.539062 85.824219 39.582031 85.824219 35.882812 C 85.824219 32.183594 82.894531 29.222656 79.3125 29.222656 C 75.730469 29.222656 72.796875 32.265625 72.796875 35.882812 Z M 82.570312 35.882812 C 82.570312 37.691406 81.101562 39.167969 79.3125 39.167969 C 77.519531 39.167969 76.054688 37.691406 76.054688 35.882812 C 76.054688 34.074219 77.519531 32.59375 79.3125 32.59375 C 81.101562 32.59375 82.570312 34.074219 82.570312 35.882812 Z M 82.570312 35.882812 " fill-opacity="1" fill-rule="nonzero"/></g><path fill="#ffffff" d="M 50.402344 30.949219 L 59.363281 30.949219 C 60.257812 30.949219 60.988281 30.207031 60.988281 29.304688 C 60.988281 28.402344 60.257812 27.660156 59.363281 27.660156 L 50.402344 27.660156 C 49.507812 27.660156 48.777344 28.402344 48.777344 29.304688 C 48.777344 30.207031 49.507812 30.949219 50.402344 30.949219 Z M 50.402344 30.949219 " fill-opacity="1" fill-rule="nonzero"/></svg>