<?xml version='1.0' encoding='utf-8'?>
<svg xmlns="http://www.w3.org/2000/svg" version="1.0" width="300.000000pt" height="147.000000pt" viewBox="0 0 300.000000 147.000000" preserveAspectRatio="xMidYMid meet"> <metadata> Created by potrace 1.10, written by Peter Selinger 2001-2011 </metadata> <g transform="translate(0.000000,147.000000) scale(0.050000,-0.050000)" fill="#ffffff" stroke="none"> <path d="M2545 2898 c-1 -22 -12 -52 -23 -66 -25 -30 -191 -43 -173 -13 8 12 5 21 -6 21 -10 0 -17 16 -16 35 7 90 -254 59 -494 -59 l-217 -106 -261 -380 c-144 -209 -286 -411 -315 -450 -30 -38 -70 -95 -90 -126 l-36 -56 208 14 c134 9 213 23 223 39 20 34 277 76 396 64 108 -10 116 -18 333 -300 78 -103 148 -175 169 -175 56 0 650 208 614 215 -27 6 -29 19 -12 86 23 93 55 86 55 -12 0 -128 106 -70 130 71 16 94 8 92 104 35 67 -40 103 -45 305 -45 l230 0 125 -420 c69 -231 126 -426 126 -433 0 -8 -38 -20 -85 -28 -47 -8 -141 -40 -211 -72 -69 -31 -137 -57 -152 -57 -15 0 -38 -13 -52 -30 -13 -16 -32 -25 -41 -20 -8 6 -19 0 -23 -12 -5 -15 -89 -25 -241 -28 -262 -5 -299 17 -61 37 324 27 378 67 359 258 -7 73 -5 114 5 98 12 -19 21 -21 31 -5 7 12 4 22 -7 22 -32 0 -73 95 -112 260 -42 180 -79 249 -148 279 -46 20 -45 17 12 -28 71 -58 225 -614 198 -720 -27 -107 -187 -143 -732 -164 -358 -14 -363 -12 -396 163 -19 97 -20 98 -22 24 -3 -102 47 -191 124 -225 60 -26 53 -27 -131 -28 -107 -1 -195 6 -195 15 0 27 -60 492 -71 554 -40 218 -248 475 -406 504 -405 73 -664 -5 -835 -250 l-93 -134 151 145 c501 484 1080 227 1185 -526 50 -360 47 -349 90 -349 26 0 39 -14 39 -41 0 -33 -9 -39 -42 -28 -39 12 -77 -14 -78 -55 0 -7 308 -10 685 -7 714 7 879 25 1105 120 47 19 216 38 500 54 l429 24 50 71 51 72 0 -74 c0 -365 211 -636 495 -636 314 0 550 394 467 779 -13 59 -18 111 -13 117 36 35 170 -177 171 -270 0 -24 9 -49 20 -56 24 -15 69 92 45 108 -9 7 -33 55 -53 108 -70 188 -324 438 -510 503 -215 76 -308 42 -556 -206 -196 -196 -714 -473 -940 -502 -64 -8 -193 -38 -286 -66 -251 -75 -289 -77 -296 -13 -6 48 3 54 123 86 179 49 572 243 817 404 244 160 683 575 551 521 -96 -40 -165 -82 -105 -64 37 10 37 9 5 -16 -19 -15 -29 -33 -21 -40 7 -7 -3 -13 -21 -13 -19 0 -39 -13 -46 -30 -6 -16 -19 -25 -29 -19 -10 7 -27 -9 -37 -35 -11 -27 -19 -33 -21 -16 -1 17 -14 7 -31 -25 -17 -30 -35 -55 -41 -55 -6 0 -4 10 3 21 7 12 -5 11 -28 -4 -22 -14 -36 -32 -31 -40 5 -8 -70 -66 -166 -129 -97 -63 -201 -137 -231 -165 -73 -67 -68 -76 -206 383 l-120 404 680 6 c684 6 845 -2 790 -37 -16 -10 -60 -19 -99 -19 -65 -1 -140 -37 -140 -67 0 -16 115 -16 175 0 25 6 45 25 45 42 0 49 239 22 359 -41 l97 -50 9 63 c15 100 8 104 -173 93 -128 -8 -165 -4 -157 15 7 19 -166 26 -796 30 l-805 5 -37 129 c-43 152 -45 148 66 123 48 -11 330 -35 627 -53 297 -18 621 -39 720 -48 195 -18 208 -16 172 27 -16 19 -84 33 -198 41 -96 7 -223 16 -284 21 -60 4 -240 15 -400 23 -191 10 -266 20 -220 29 39 7 -63 8 -226 2 -274 -9 -297 -8 -324 28 -16 22 -29 27 -29 13 -1 -14 -29 -26 -66 -28 l-65 -2 70 -13 c74 -13 67 -1 152 -267 9 -30 -3 -35 -91 -35 -58 0 -101 9 -101 21 0 12 -48 136 -107 275 -59 140 -117 290 -129 334 -13 45 -36 99 -53 120 -81 107 8 -176 198 -635 38 -91 42 -115 20 -115 -16 0 -29 11 -29 25 -1 18 -6 17 -18 -3 -13 -20 -40 -24 -102 -14 -161 25 -163 28 -106 217 67 222 70 240 46 275 -25 37 -80 -22 -80 -86 0 -112 -67 -312 -98 -294 -82 47 -82 47 -52 161 16 60 29 127 28 149 -2 66 -57 -79 -120 -316 -65 -248 -68 -254 -114 -254 -79 1 -96 34 -49 98 25 33 45 65 45 71 0 21 -215 -7 -281 -37 -49 -22 -54 -29 -19 -21 41 8 37 3 -19 -28 l-69 -38 64 -33 c76 -39 76 -38 22 -125 -60 -97 -68 -90 -180 148 -56 118 -110 218 -120 222 -10 3 -18 172 -18 380 -1 258 -7 364 -21 343 -12 -18 -18 -163 -16 -358 4 -336 -27 -459 -103 -412 -34 21 -22 49 28 61 l48 12 -48 109 c-42 95 -48 139 -48 345 l0 237 55 26 c115 56 581 56 867 0 l257 -51 13 87 c16 104 53 77 -290 211 -330 130 -313 126 -317 71z m-798 -434 c-98 -83 -155 -213 -128 -289 27 -78 11 -98 -22 -27 l-24 54 -39 -86 c-51 -114 -116 -220 -128 -209 -25 26 261 538 321 575 87 53 94 47 20 -18z m189 -217 l-6 -92 -43 89 -43 89 43 98 43 99 6 -95 c3 -52 3 -137 0 -188z m-39 -85 c77 -192 67 -217 -92 -226 -131 -7 -181 0 -130 18 14 5 20 17 15 27 -14 22 135 323 151 304 7 -8 32 -63 56 -123z m3561 -944 c79 -58 100 -108 37 -89 -177 54 -203 57 -293 33 -50 -13 -120 -46 -155 -73 -98 -75 -120 -52 -47 51 98 137 326 176 458 78z m-16 -163 c232 -154 235 -654 5 -805 -260 -170 -549 139 -483 516 48 271 287 416 478 289z m-2730 -472 c-15 -23 -148 -26 -162 -2 -7 11 26 19 80 19 51 0 88 -8 82 -17z m595 -67 c17 -65 36 -63 -588 -72 -569 -9 -579 -8 -579 31 0 39 20 41 535 59 294 11 554 21 578 23 28 2 46 -11 54 -41z"/> <path d="M5224 756 c-60 -60 -13 -216 66 -216 85 0 127 165 56 223 -23 18 -29 19 -19 2 11 -17 0 -25 -37 -25 -30 0 -47 9 -40 20 17 27 3 25 -26 -4z"/> <path d="M5113 395 c9 -14 13 -41 10 -60 -6 -37 49 -50 61 -14 9 29 86 -4 86 -36 0 -14 9 -24 20 -24 11 1 19 13 18 28 -2 15 18 31 45 36 26 5 47 2 47 -8 0 -9 13 -17 29 -17 19 0 28 20 27 60 -2 68 -10 71 -65 29 -21 -16 -67 -29 -101 -29 -34 0 -80 13 -101 29 -49 37 -97 41 -76 6z"/> <path d="M645 2078 c-53 -20 -64 -41 -274 -535 -185 -435 -191 -460 -130 -559 42 -70 111 -82 106 -18 -1 20 12 34 33 34 19 0 46 14 60 30 29 35 29 35 -55 11 -56 -15 -65 -13 -65 17 0 60 50 107 129 120 l75 12 110 275 c69 173 121 275 139 275 15 0 37 23 47 51 64 166 -40 337 -175 287z"/> <path d="M5344 1927 c-2 -23 -17 -48 -33 -54 -34 -13 -23 -113 15 -137 35 -22 94 -19 94 4 0 11 -13 20 -29 20 -21 0 -31 30 -36 105 -4 58 -9 86 -11 62z"/> <path d="M4680 1780 c0 -13 110 -19 295 -17 279 3 286 4 125 18 -252 22 -420 22 -420 -1z"/> <path d="M5691 1435 c33 -36 61 -69 64 -73 3 -5 5 10 5 33 0 50 -50 105 -95 105 -24 0 -18 -16 26 -65z"/> <path d="M1156 1361 c-84 -27 -169 -93 -396 -310 -116 -111 -272 -246 -347 -301 l-136 -100 106 -14 c59 -7 177 -19 262 -26 143 -12 155 -17 155 -58 0 -589 745 -726 917 -168 35 116 36 117 72 77 90 -99 104 -50 71 237 -50 437 -395 762 -704 663z m283 -120 c88 -46 177 -146 140 -158 -13 -4 -58 11 -99 35 -164 92 -315 73 -483 -60 -102 -81 -120 -60 -43 47 118 162 321 219 485 136z m23 -213 c183 -173 205 -518 45 -707 -297 -353 -723 143 -507 589 94 194 322 252 462 118z m-662 -298 c0 -67 -3 -70 -70 -70 -38 0 -70 6 -70 14 0 11 120 123 135 125 3 1 5 -30 5 -69z"/> <path d="M1249 1038 c-21 -33 26 -71 53 -44 23 23 9 66 -22 66 -10 0 -24 -10 -31 -22z"/> <path d="M1200 729 c-55 -142 74 -258 152 -138 38 57 19 169 -30 185 -17 6 -22 0 -14 -13 10 -15 -5 -23 -42 -23 -43 1 -49 5 -26 20 21 13 22 19 5 20 -15 0 -35 -23 -45 -51z"/> <path d="M1090 420 c-7 -11 2 -26 19 -32 24 -9 26 -19 11 -39 -30 -35 12 -60 50 -29 32 27 80 4 80 -38 0 -16 11 -32 25 -37 14 -5 25 8 25 31 0 23 17 44 40 50 22 6 40 2 40 -8 0 -10 13 -18 29 -18 18 0 28 20 27 59 -2 58 -3 58 -58 30 -78 -40 -152 -36 -219 11 -35 25 -61 33 -69 20z"/> <path d="M2243 1069 c-1 -34 -14 -72 -27 -85 -29 -29 -14 -48 21 -26 16 10 23 44 18 94 -7 65 -9 68 -12 17z"/> <path d="M174 697 c-68 -56 -72 -64 -41 -86 30 -23 28 -27 -22 -39 -32 -8 -66 -4 -83 10 -36 30 -40 -22 -4 -58 64 -64 215 51 240 181 13 69 4 68 -90 -8z"/> </g> </svg>