<?xml version="1.0" encoding="UTF-8"?>
<svg enable-background="new -150.1 -150.1 600.2 600.2" viewBox="-150.1 -150.1 600.2 600.2" xmlns="http://www.w3.org/2000/svg" xmlns:xlink="http://www.w3.org/1999/xlink" fill="#ffffff" >
 <defs>
  <path id="b" d="m-150-150h600v600h-600z"/>
  <clipPath id="a">
   <use xlink:href="#b"/>
  </clipPath>
 </defs>
 <path d="m-150-150h600v254.82c-34.996 25.95-70.301 51.511-105.62 77.021-12.615-12.166-26.715-22.809-38.314-35.999-8.813-10.705-16.752-22.14-23.701-34.138-6.414-11.155-10.055-23.557-14.102-35.686-3.205-9.958-10.355-19.132-20.18-23.152-7.264-1.278-14.342 3.625-17.586 9.893-5.715 9.278-3.273 21.034 0.988 30.375 15.523 33.256 40.383 62.146 70.975 82.422 9.705 6.195 20.248 11.074 31.416 13.971-3.748 2.666-5.455 6.572-4.996 11.191 2.451 0.631 4.926 1.188 7.426 1.674 4.973-1.781 8.52-6.199 13.496-7.898 5.496 0.627 10.848 2.143 16.277 3.184-3.207-3.031-6.473-6-9.764-8.93 31.225-22.797 62.615-45.383 93.689-68.38v329.64h-600v-282.33c131.58 77.992 263.5 155.44 395.07 233.44 11.061 8.107 25.336 11.213 38.842 9.279 6.279-1.773 13.855-4.957 14.922-12.297-0.668-2.73-2.318-4.514-4.947-5.352-6.434 0.758-11.029 7.318-17.828 6.605-8.787-0.063-16.471-4.953-24.125-8.658 5.326-2.58 12.52-4.166 14.344-10.658 1.82-3.469-2.625-8.359-6.289-6.996-5.938 2.238-11.047 7.67-17.922 6.238-11.926-1.992-22.871-7.766-33.059-14.07-119.62-70.764-239.44-141.22-359.01-212.07v-224.19c39.048 33.253 78.847 65.638 118.03 98.741-1.998 2.072-3.996 4.147-6 6.217 3.421-0.952 6.846-1.891 10.284-2.782 4.595 3.802 8.872 8.11 14.119 11.033 4.762 1.956 7.953-2.327 9.073-6.348-3.219-3.771-6.704-7.305-10.497-10.495 21.416-4.16 42.255-11.49 64.146-12.92 13.011-1.71 26.104-0.095 39.126 0.549 16.841 1.017 32.604 9.487 49.703 7.854 6.252-0.587 13.86-2.455 16.915-8.58 3.891-8.322-1.271-17.988-8.057-23.069-10.618-7.786-24.412-7.925-37.005-8.829-23.524-2.285-47.074 1.856-69.971 6.937-10.818 2.815-21.273 6.952-31.501 11.428-11.228 5.218-20.786 13.22-30.393 20.883-42.653-35.622-85.57-70.945-127.97-106.86v-62.699z" clip-path="url(#a)" fill="none" stroke="#fff" stroke-miterlimit="10" stroke-width=".2"/>
 <path d="m-150-87.301c42.4,35.914 85.317,71.236 127.971,106.858 9.606-7.662 19.165-15.664 30.392-20.882 10.228-4.476 20.683-8.613 31.503-11.43 22.896-5.08 46.446-9.222 69.971-6.937 12.593.904 26.387,1.043 37.005,8.829 6.785,5.081 11.947,14.747 8.057,23.069-3.055,6.125-10.663,7.993-16.915,8.58-17.099,1.634-32.862-6.837-49.703-7.854-13.022-.644-26.115-2.259-39.126-.549-21.892,1.43-42.73,8.76-64.146,12.92 3.793,3.19 7.278,6.725 10.497,10.495-1.12,4.021-4.312,8.304-9.073,6.348-5.247-2.923-9.524-7.231-14.119-11.033-3.438.892-6.863,1.83-10.284,2.782 2.004-2.069 4.002-4.145 6-6.217-39.183-33.101-78.982-65.486-118.03-98.74v-16.239z" clip-path="url(#a)" fill="none" stroke="#000" stroke-miterlimit="10" stroke-width=".2"/>
 <path d="m-150-87.301c42.4,35.914 85.317,71.236 127.971,106.858 9.606-7.662 19.165-15.664 30.392-20.882 10.228-4.476 20.683-8.613 31.503-11.43 22.896-5.08 46.446-9.222 69.971-6.937 12.593.904 26.387,1.043 37.005,8.829 6.785,5.081 11.947,14.747 8.057,23.069-3.055,6.125-10.663,7.993-16.915,8.58-17.099,1.634-32.862-6.837-49.703-7.854-13.022-.644-26.115-2.259-39.126-.549-21.892,1.43-42.73,8.76-64.146,12.92 3.793,3.19 7.278,6.725 10.497,10.495-1.12,4.021-4.312,8.304-9.073,6.348-5.247-2.923-9.524-7.231-14.119-11.033-3.438.892-6.863,1.83-10.284,2.782 2.004-2.069 4.002-4.145 6-6.217-39.183-33.101-78.982-65.486-118.03-98.74v-16.239z" clip-path="url(#a)"/>
 <path d="m235.31-52.164c15.084-1.744 31.064 4.385 40.75 16.164 7.215 9.602 12.277 22.203 9.168 34.268-2.529 11.208-9.133 21.771-18.938 27.984-12.063 7.883-27.893 9.885-41.412 4.719-20.268-6.544-34.014-30.012-27.846-50.762 4.621-17.429 20.578-30.211 38.278-32.373z" clip-path="url(#a)" fill="none" stroke="#000" stroke-miterlimit="10" stroke-width=".2"/>
 <path d="m235.31-52.164c15.084-1.744 31.064 4.385 40.75 16.164 7.215 9.602 12.277 22.203 9.168 34.268-2.529 11.208-9.133 21.771-18.938 27.984-12.063 7.883-27.893 9.885-41.412 4.719-20.268-6.544-34.014-30.012-27.846-50.762 4.621-17.429 20.578-30.211 38.278-32.373z" clip-path="url(#a)"/>
 <path d="m230.492,62.754c3.244-6.268 10.322-11.171 17.586-9.893 9.824,4.021 16.975,13.194 20.18,23.152 4.047,12.129 7.688,24.53 14.102,35.686 6.949,11.998 14.889,23.433 23.701,34.138 11.6,13.19 25.699,23.833 38.314,35.999 35.324-25.51 70.629-51.07 105.625-77.021v15.547c-31.074,22.997-62.465,45.583-93.689,68.38 3.291,2.93 6.557,5.898 9.764,8.93-5.43-1.041-10.781-2.557-16.277-3.184-4.977,1.699-8.523,6.117-13.496,7.898-2.5-.486-4.975-1.043-7.426-1.674-.459-4.619 1.248-8.525 4.996-11.191-11.168-2.896-21.711-7.775-31.416-13.971-30.592-20.275-55.451-49.166-70.975-82.422-4.262-9.34-6.704-21.096-.989-30.374z" clip-path="url(#a)" fill="none" stroke="#000" stroke-miterlimit="10" stroke-width=".2"/>
 <path d="m230.492,62.754c3.244-6.268 10.322-11.171 17.586-9.893 9.824,4.021 16.975,13.194 20.18,23.152 4.047,12.129 7.688,24.53 14.102,35.686 6.949,11.998 14.889,23.433 23.701,34.138 11.6,13.19 25.699,23.833 38.314,35.999 35.324-25.51 70.629-51.07 105.625-77.021v15.547c-31.074,22.997-62.465,45.583-93.689,68.38 3.291,2.93 6.557,5.898 9.764,8.93-5.43-1.041-10.781-2.557-16.277-3.184-4.977,1.699-8.523,6.117-13.496,7.898-2.5-.486-4.975-1.043-7.426-1.674-.459-4.619 1.248-8.525 4.996-11.191-11.168-2.896-21.711-7.775-31.416-13.971-30.592-20.275-55.451-49.166-70.975-82.422-4.262-9.34-6.704-21.096-.989-30.374z" clip-path="url(#a)"/>
 <path d="m43.28,96.021c.133-11.543 13.224-15.564 22.769-15.2 18.538-2.406 33.541,11.478 44.063,24.984 2.51,4.407 7.875,2.598 11.98,2.996 10.765-.171 19.872,6.678 27.658,13.356 12.812,12.876 23.231,27.855 32.733,43.275 8.73,16.402 18.496,33.201 19.537,52.219 .643,5.453-1.596,10.625-2.965,15.789-4.896,4.074-10.51,7.332-16.846,8.48-15.285,3.283-30.699,6.094-46.208,8.084-31.236.842-62.3,5.652-93.582,5.395 28.788-13.178 57.087-28.205 88.233-35.15 9.404-1.701 18.401-5.242 26.838-9.666 .885-4.484-4.74-6.953-6.988-10.322l-1.475,5.16c-8.313,7.898-19.972,9.32-30.741,11.34-10.91,1.859-21.758,4.158-32.778,5.297-31.062.807-61.946,5.574-93.054,5.379 31.785-14.76 63.388-31.426 98.355-37.209 6.509-1.484 15.656-2.041 17.582-9.85-5.582-5.98-10.289-12.793-16.575-18.092-11.187-9.479-21.112-20.349-30.439-31.629-7.915-10.297-16.564-21.326-18.097-34.636z" clip-path="url(#a)" fill="none" stroke="#000" stroke-miterlimit="10" stroke-width=".2"/>
 <path d="m43.28,96.021c.133-11.543 13.224-15.564 22.769-15.2 18.538-2.406 33.541,11.478 44.063,24.984 2.51,4.407 7.875,2.598 11.98,2.996 10.765-.171 19.872,6.678 27.658,13.356 12.812,12.876 23.231,27.855 32.733,43.275 8.73,16.402 18.496,33.201 19.537,52.219 .643,5.453-1.596,10.625-2.965,15.789-4.896,4.074-10.51,7.332-16.846,8.48-15.285,3.283-30.699,6.094-46.208,8.084-31.236.842-62.3,5.652-93.582,5.395 28.788-13.178 57.087-28.205 88.233-35.15 9.404-1.701 18.401-5.242 26.838-9.666 .885-4.484-4.74-6.953-6.988-10.322l-1.475,5.16c-8.313,7.898-19.972,9.32-30.741,11.34-10.91,1.859-21.758,4.158-32.778,5.297-31.062.807-61.946,5.574-93.054,5.379 31.785-14.76 63.388-31.426 98.355-37.209 6.509-1.484 15.656-2.041 17.582-9.85-5.582-5.98-10.289-12.793-16.575-18.092-11.187-9.479-21.112-20.349-30.439-31.629-7.915-10.297-16.564-21.326-18.097-34.636z" clip-path="url(#a)"/>
 <path d="m-150 153.13c119.57 70.855 239.39 141.31 359.01 212.07 10.188 6.305 21.133 12.078 33.059 14.07 6.875 1.432 11.984-4 17.922-6.238 3.664-1.363 8.109 3.527 6.289 6.996-1.824 6.492-9.018 8.078-14.344 10.658 7.654 3.705 15.338 8.596 24.125 8.658 6.799 0.713 11.395-5.848 17.828-6.605 2.629 0.838 4.279 2.621 4.947 5.352-1.066 7.34-8.643 10.523-14.922 12.297-13.506 1.934-27.781-1.172-38.842-9.279-131.58-77.999-263.49-155.45-395.07-233.44v-14.541z" clip-path="url(#a)" fill="none" stroke="#000" stroke-miterlimit="10" stroke-width=".2"/>
 <path d="m-150 153.13c119.57 70.855 239.39 141.31 359.01 212.07 10.188 6.305 21.133 12.078 33.059 14.07 6.875 1.432 11.984-4 17.922-6.238 3.664-1.363 8.109 3.527 6.289 6.996-1.824 6.492-9.018 8.078-14.344 10.658 7.654 3.705 15.338 8.596 24.125 8.658 6.799 0.713 11.395-5.848 17.828-6.605 2.629 0.838 4.279 2.621 4.947 5.352-1.066 7.34-8.643 10.523-14.922 12.297-13.506 1.934-27.781-1.172-38.842-9.279-131.58-77.999-263.49-155.45-395.07-233.44v-14.541z" clip-path="url(#a)"/>
</svg>
